<?xml version="1.0" encoding="utf-8"?>
<!-- Svg Vector Icons : http://www.onlinewebfonts.com/icon -->
<!DOCTYPE svg PUBLIC "-//W3C//DTD SVG 1.1//EN" "http://www.w3.org/Graphics/SVG/1.1/DTD/svg11.dtd">
<svg version="1.1" xmlns="http://www.w3.org/2000/svg" xmlns:xlink="http://www.w3.org/1999/xlink" x="0px" y="0px" viewBox="0 0 256 256" enable-background="new 0 0 256 256" xml:space="preserve">
<metadata> Svg Vector Icons : http://www.onlinewebfonts.com/icon </metadata>
<g><g><g><path fill="#000000" d="M120.1,0.4C95.5,3.8,75.2,21.9,69,45.9c-1,4-1.5,7.8-1.8,13.8l-0.4,8.3l-23,0.3l-23,0.3l-1.9,2.1c-1.5,1.7-1.9,2.7-2.2,5.1c-0.2,1.7-1,19.7-1.8,40.1c-0.8,20.3-2.3,58.8-3.4,85.3c-2.2,53.8-2.3,50.7,1.6,53.5l1.8,1.3H128h113.1l1.8-1.3c1-0.7,2.2-2.2,2.7-3.2c0.9-1.8,0.6-7.4-3.9-89.6c-3.6-66.1-4.9-88.1-5.5-89.3c-0.5-0.9-1.5-2.2-2.4-2.8c-1.5-1.1-2.4-1.2-23.1-1.5l-21.5-0.3l-0.4-8.3c-0.4-9.7-2.1-16.7-5.5-24.2c-9.8-21-29.9-34.4-52.9-35.3C126.8,0,122.1,0.1,120.1,0.4z M137.9,17.3c2.3,0.5,6.7,2.2,9.9,3.6c9.7,4.7,18.1,13.7,21.9,23.6c2.1,5.4,3.5,13.3,3.2,18.9l-0.2,4.4H128H83.3l-0.2-4c-0.4-9.1,2.2-19.1,7-26.7c3.9-6.4,11.1-12.8,17.7-16.1c3-1.5,7.2-3.1,9.5-3.6C122.7,16.1,132.4,16,137.9,17.3z M67.1,92c0,7.3-0.1,8-1.2,9c-3.6,3.3-4.7,10.3-2.3,14.9c1.5,2.8,4.6,5.5,7.5,6.4c12.5,3.7,22.3-10.7,14-20.4L83,99.6v-7.7v-7.7h45h45v7.7v7.7l-1.9,2.2c-4.6,5.3-4.3,12.1,0.7,17c6.3,6.4,16.5,4.8,20.6-3c2.4-4.6,1.3-11.6-2.3-14.9c-1.1-1-1.2-1.7-1.2-9v-7.9h16.2c12.2,0,16.2,0.2,16.2,0.7c0,1.4,7.9,148.4,8.2,151.6l0.2,3.2h-102H26l0.3-5.9c0.2-3.2,1.1-25.1,2.1-48.5c0.9-23.5,2.2-55,2.8-69.9c0.6-14.9,1.1-28.1,1.1-29.2v-2.1h17.4h17.4V92z"/></g></g></g>
</svg>