<?xml version="1.0" encoding="utf-8"?>
<!-- Svg Vector Icons : http://www.onlinewebfonts.com/icon -->
<!DOCTYPE svg PUBLIC "-//W3C//DTD SVG 1.1//EN" "http://www.w3.org/Graphics/SVG/1.1/DTD/svg11.dtd">
<svg version="1.1" xmlns="http://www.w3.org/2000/svg" xmlns:xlink="http://www.w3.org/1999/xlink" x="0px" y="0px" viewBox="0 0 256 256" enable-background="new 0 0 256 256" xml:space="preserve">
<metadata> Svg Vector Icons : http://www.onlinewebfonts.com/icon </metadata>
<g><g><path fill="#000000" d="M118.9,155.2h18.2v-18.2h54.5c15.2,0,18.1,0.2,18.2,18.2l0,0h18.2v-18.2c0-12-6.3-18.1-18.2-18.2h-72.6v-18.2h-18.2v18.2l-69.3,1.3c-11.9,0-21.5,9.7-21.5,21.8v13.3h18.2c0-13.9-0.9-18.1,18.2-18.2H119L118.9,155.2L118.9,155.2z M93.3,82.6h69.4c5.9,0,10.7-5.3,10.7-11.8V40c0-6.5-4.8-11.8-10.7-11.8H93.3c-5.9,0-10.7,5.3-10.7,11.8v30.8C82.6,77.3,87.4,82.6,93.3,82.6z M56.4,173.4H18.1c-4.5,0-8.1,5.1-8.1,11.4v31.6c0,6.3,3.6,11.4,8.1,11.4h38.2c4.5,0,8.1-5.1,8.1-11.4v-31.6C64.5,178.5,60.8,173.4,56.4,173.4z M147.1,173.4h-38.2c-4.5,0-8.1,5.1-8.1,11.4v31.6c0,6.3,3.6,11.4,8.1,11.4h38.2c4.5,0,8.1-5.1,8.1-11.4v-31.6C155.2,178.5,151.6,173.4,147.1,173.4z M237.9,173.4h-38.2c-4.5,0-8.1,5.1-8.1,11.4v31.6c0,6.3,3.6,11.4,8.1,11.4h38.2c4.5,0,8.1-5.1,8.1-11.4v-31.6C246,178.5,242.4,173.4,237.9,173.4z"/></g></g>
</svg>