<?xml version="1.0" encoding="utf-8"?>
<!-- Svg Vector Icons : http://www.onlinewebfonts.com/icon -->
<!DOCTYPE svg PUBLIC "-//W3C//DTD SVG 1.1//EN" "http://www.w3.org/Graphics/SVG/1.1/DTD/svg11.dtd">
<svg version="1.1" xmlns="http://www.w3.org/2000/svg" xmlns:xlink="http://www.w3.org/1999/xlink" x="0px" y="0px" viewBox="0 0 256 256" enable-background="new 0 0 256 256" xml:space="preserve">
<metadata> Svg Vector Icons : http://www.onlinewebfonts.com/icon </metadata>
<g><g><g><path fill="#000000" d="M115.7,10.9c-5.8,0.9-14.1,3.7-18.1,6.1c-1.7,1-5.2,4-7.8,6.5c-5.4,5.4-7.9,9.5-10,16.7c-1.9,6.6-2.4,12.9-2.4,28.5v13.9l-2,3.9c-1.9,3.7-2,4.2-2,8.7c0,4.1,0.2,5.2,1.4,7.9c0.8,1.6,2.6,4.3,4,5.8c2,2.2,2.8,3.6,4,7.2c3,8.9,8.4,18.8,13.6,24.6c2.5,2.7,2.5,2.7,2.5,6.6c0,4.6-0.6,5.8-5.2,10.2c-11.1,10.8-41.6,27.5-73.1,40.1c-6.9,2.8-9.4,4.6-10.3,7.6c-0.3,1.2-0.5,8.1-0.4,18.5c0.2,16,0.2,16.8,1.3,18.2c0.6,0.8,1.9,2,2.8,2.6l1.7,1.2H128H240l1.8-1.2c1-0.6,2.3-2.2,3-3.5c1.2-2.3,1.2-2.8,1.2-18.1c0-17.3-0.2-19-2.9-21.3c-0.9-0.8-5.1-2.8-9.2-4.5c-35.6-14.4-68.8-33.6-75.3-43.3c-1.5-2.2-1.6-2.9-1.6-6.4v-3.9l2.6-3c5.4-6.3,10.3-15.3,13.5-24.6c1.1-3.2,2.1-4.8,3.9-6.9c1.4-1.4,3-3.5,3.4-4.5c1.3-2.4,2.4-6.6,2.4-8.9c0-2.8-1.5-7.9-2.9-10.1c-1.3-2-1.3-2.1-1.3-14.2c0-22.3-1.2-30.6-5.8-39.4c-5.2-10-15.2-17.1-28.3-20.1C138.2,10.3,122.4,9.8,115.7,10.9z"/></g></g></g>
</svg>